<?xml version="1.0" encoding="UTF-8"?><svg id="Capa_1" xmlns="http://www.w3.org/2000/svg" viewBox="0 0 2050.75 2032.08"><defs><style>.cls-1{fill:#f6de5c;}.cls-2{fill:#00deda;}.cls-3{fill:#00b1af;}.cls-4{fill:#f05e3e;}.cls-5{fill:#ec2e1c;}.cls-6{fill:#fff488;}.cls-7{fill:#af1915;}.cls-8{fill:#15847f;}</style></defs><polygon class="cls-6" points="893.88 1253.47 1515.23 1065.03 1000.01 557.7 893.88 1253.47"/><polygon class="cls-7" points="1889.03 557.7 1515.23 1065.03 2043.76 1034.45 1889.03 557.7"/><polygon class="cls-4" points="1584.82 172.73 1515.23 1065.03 1889.03 557.7 1584.82 172.73"/><polygon class="cls-1" points="1000.01 557.7 1584.82 172.73 1515.23 1065.03 1000.01 557.7"/><polygon class="cls-3" points="1158.04 17.98 629.77 55.33 1000 557.7 1158.04 17.98"/><polygon class="cls-2" points="1158.04 17.98 1584.82 172.73 1000 557.7 1158.04 17.98"/><polygon class="cls-8" points="629.77 55.33 229.57 402.16 1000.01 557.7 629.77 55.33"/><polygon class="cls-5" points="777.43 875.9 1000.01 557.7 229.57 402.16 777.43 875.9"/><polygon class="cls-2" points="411 1399.96 330.94 1790.64 726.27 2006.57 411 1399.96"/><polygon class="cls-3" points="411 1399.96 726.27 2006.57 893.88 1253.47 411 1399.96"/><polygon class="cls-6" points="726.27 2006.57 1090.37 1572.07 1273.77 2006.57 726.27 2006.57"/><path class="cls-1" d="M1090.37,1572.07l183.4,434.5s440.79-258.35,428.39-246.56l-611.79-187.94Z"/><polygon class="cls-2" points="1090.37 1572.07 1515.23 1065.03 1702.16 1760.01 1090.37 1572.07"/><polygon class="cls-3" points="1515.23 1065.03 1702.16 1760.01 2043.76 1034.45 1515.23 1065.03"/><polygon class="cls-1" points="1000.01 557.7 645.22 1065.03 893.88 1253.47 1000.01 557.7"/><polygon class="cls-6" points="411 1399.96 645.22 1065.03 893.88 1253.47 411 1399.96"/><polygon class="cls-8" points="893.88 1253.47 1090.37 1572.07 1515.23 1065.03 893.88 1253.47"/><polygon class="cls-7" points="893.88 1253.47 726.27 2006.57 1090.37 1572.07 893.88 1253.47"/><polygon class="cls-7" points="229.57 402.16 591.94 1141.13 777.43 875.9 229.57 402.16"/><polygon class="cls-4" points="229.57 402.16 15.06 811.35 476.44 905.59 229.57 402.16"/><polyline class="cls-7" points="15.06 811.35 63.49 1412.5 245.75 1188.83 476.44 905.59"/><polygon class="cls-2" points="476.44 905.59 284.53 1141.13 591.94 1141.13 476.44 905.59"/><polygon class="cls-3" points="284.53 1141.13 591.94 1141.13 411 1399.96 284.53 1141.13"/><polygon class="cls-6" points="411 1399.96 284.53 1141.13 63.49 1412.5 411 1399.96"/><polygon class="cls-1" points="63.49 1412.5 411 1399.96 330.94 1790.64 63.49 1412.5"/></svg>